<svg xmlns="http://www.w3.org/2000/svg" xmlns:xlink="http://www.w3.org/1999/xlink" viewBox="0,0,256,256" width="40px" height="40px"><defs><radialGradient cx="32" cy="33" r="29.606" gradientUnits="userSpaceOnUse" id="color-1"><stop offset="0" stop-color="#c5f1ff" stop-opacity="0"></stop><stop offset="0.35" stop-color="#cdf3ff" stop-opacity="0"></stop><stop offset="0.907" stop-color="#e4faff" stop-opacity="0"></stop><stop offset="1" stop-color="#ffffff" stop-opacity="0"></stop></radialGradient><linearGradient x1="32.5" y1="64.102" x2="32.5" y2="22.102" gradientUnits="userSpaceOnUse" id="color-2"><stop offset="0" stop-color="#ffffff"></stop><stop offset="0.278" stop-color="#ffffff"></stop><stop offset="0.569" stop-color="#ffffff"></stop><stop offset="0.82" stop-color="#ffffff"></stop><stop offset="1" stop-color="#ffffff"></stop></linearGradient></defs><g fill="none" fill-rule="nonzero" stroke="none" stroke-width="1" stroke-linecap="butt" stroke-linejoin="miter" stroke-miterlimit="10" stroke-dasharray="" stroke-dashoffset="0" font-family="none" font-weight="none" font-size="none" text-anchor="none" style="mix-blend-mode: normal"><g transform="scale(4,4)"><path d="M10.5,60h41c2.485,0 4.5,-2.015 4.5,-4.5v0c0,-2.485 -2.015,-4.5 -4.5,-4.5h-0.393c-0.996,0 -1.92,-0.681 -2.08,-1.664c-0.203,-1.253 0.758,-2.336 1.973,-2.336h5.288c2.347,0 4.453,-1.704 4.689,-4.039c0.27,-2.679 -1.85,-4.961 -4.477,-4.961h-3.393c-0.996,0 -1.92,-0.681 -2.08,-1.664c-0.203,-1.253 0.758,-2.336 1.973,-2.336h5.241c2.868,0 5.442,-2.082 5.731,-4.936c0.331,-3.275 -2.261,-6.064 -5.472,-6.064h-12.33c-1.624,0 -3.081,-1.216 -3.166,-2.839c-0.09,-1.73 1.286,-3.161 2.996,-3.161h2.241c2.868,0 5.442,-2.082 5.731,-4.936c0.331,-3.275 -2.261,-6.064 -5.472,-6.064h-38c-3.038,0 -5.5,2.462 -5.5,5.5v0c0,3.038 2.462,5.5 5.5,5.5h3.5c1.105,0 2,0.895 2,2v0c0,1.105 -0.895,2 -2,2h-9.288c-2.347,0 -4.453,1.704 -4.689,4.038c-0.271,2.68 1.85,4.962 4.477,4.962h8.33c1.624,0 3.081,1.216 3.166,2.839c0.09,1.73 -1.286,3.161 -2.996,3.161h-5.288c-2.347,0 -4.453,1.704 -4.689,4.038c-0.27,2.68 1.85,4.962 4.477,4.962h6.393c0.996,0 1.92,0.681 2.08,1.664c0.203,1.253 -0.758,2.336 -1.973,2.336h-3.5c-3.038,0 -5.5,2.462 -5.5,5.5v0c0,3.038 2.462,5.5 5.5,5.5z" fill="url(#color-1)"></path><path d="M57.667,19.058c-1.44,0.493 -2.997,0.771 -4.636,0.956c1.617,-0.805 2.735,-1.99 3.78,-3.441c0.598,-0.83 -0.329,-1.915 -1.25,-1.469c-1.638,0.793 -3.22,1.382 -5.213,1.721c-1.949,-1.752 -4.519,-2.825 -7.348,-2.825c-4.11,0 -7.69,2.25 -9.57,5.58c-0.91,1.6 -1.43,3.45 -1.43,5.42c0,0.677 0.082,1.332 0.199,1.975c-8.839,-0.263 -16.248,-4.827 -20.463,-10.568c-0.468,-0.637 -1.446,-0.501 -1.736,0.234c-0.447,1.131 -1,2.359 -1,4.359c0,0.12 0,0.23 0.01,0.34c0.04,1.3 0.33,2.54 0.83,3.66c0.94,2.17 2.64,3.94 4.77,4.98c-0.2,0.01 -0.4,0.02 -0.61,0.02c-2,0 -2.658,-0.685 -3.743,-0.967c-0.683,-0.178 -1.35,0.392 -1.247,1.09c0.328,2.221 1.484,4.559 3.029,6.047c1.66,1.62 3.88,2.66 6.35,2.81c-1.319,0.65 -2.809,1.02 -4.389,1.02h-1c-0.756,0 -1.227,0.8 -0.886,1.474c1.677,3.317 5.561,5.53 9.722,5.516c-4.01,2.528 -8.745,4.01 -13.836,4.01h-1c-0.552,0 -1,0.448 -1,1c0,0.458 0.314,0.828 0.734,0.946l-0.002,0.017c0,0 7.53,3.037 16.268,3.037c16.93,0 30.69,-13.57 30.99,-30.43c0.01,-0.19 0.01,-0.38 0.01,-0.57c0,-0.19 0,-0.38 -0.01,-0.57c-0.014,-0.275 -0.048,-0.545 -0.082,-0.815c1.851,-0.589 3.499,-1.558 4.811,-2.926c0.723,-0.753 -0.064,-1.969 -1.052,-1.631z" fill="url(#color-2)"></path></g></g></svg>